# xmcd CD database file
#
# Track frame offsets:
#	150
#	14082
#	27827
#	43002
#	55235
#	68565
#	80215
#	93242
#	105357
#	116717
#	129477
#	141727
#	155937
#	169357
#	182940
#	197235
#	211752
#	229647
#	246755
#	263307
#	277585
#	291010
#	304200
#
# Disc length: 4225 seconds
#
# Revision: 2
# Processed by: cddbd v1.5.2PL0 Copyright (c) Steve Scherf et al.
# Submitted via: CDex 1.70beta2
#
DISCID=4e107f17
DTITLE=浅田美代子 - ゴールデン・Jポップ～ザ・ベスト
DYEAR=1973
DGENRE=Pop
TTITLE0=赤い風船
TTITLE1=夢でいいから
TTITLE2=いつかどこかで
TTITLE3=ひとりっ子 甘えっ子む
TTITLE4=風とふたりで
TTITLE5=わたしの宵待草
TTITLE6=恋のシンデレラ
TTITLE7=恋は真珠いろ
TTITLE8=北風の日曜日
TTITLE9=ひとりぼっちの恋
TTITLE10=しあわせの一番星
TTITLE11=恋のまえぶれ
TTITLE12=虹の架け橋
TTITLE13=じゃあまたね
TTITLE14=パリの絵ハガキ
TTITLE15=千羽鶴
TTITLE16=めざめのいい朝
TTITLE17=かえらない夏
TTITLE18=想い出のカフェテラスむ
TTITLE19=少女恋唄
TTITLE20=紅い花
TTITLE21=ヒロシの想い出
TTITLE22=この胸に この髪に
EXTD=YEAR: 1973
EXTT0=
EXTT1=
EXTT2=
EXTT3=
EXTT4=
EXTT5=
EXTT6=
EXTT7=
EXTT8=
EXTT9=
EXTT10=
EXTT11=
EXTT12=
EXTT13=
EXTT14=
EXTT15=
EXTT16=
EXTT17=
EXTT18=
EXTT19=
EXTT20=
EXTT21=
EXTT22=
PLAYORDER=
